<svg xmlns="http://www.w3.org/2000/svg" viewBox="0 0 460 360" font-family="system-ui, -apple-system, Segoe UI, sans-serif">
<clipPath id="plot"><rect x="70" y="24" width="336" height="266"/></clipPath><rect x="70" y="24" width="336" height="266" fill="#fbfbfb" stroke="#ddd"/><g clip-path="url(#plot)"><circle cx="322.0" cy="108.0" r="70.0" fill="none" stroke="#e2e2e2"/><text x="372" y="58" font-size="9" fill="#bbb">f=1</text><circle cx="322.0" cy="108.0" r="140.0" fill="none" stroke="#e2e2e2"/><text x="421" y="9" font-size="9" fill="#bbb">f=4</text><circle cx="322.0" cy="108.0" r="210.0" fill="none" stroke="#e2e2e2"/><text x="471" y="-41" font-size="9" fill="#bbb">f=9</text><circle cx="322.0" cy="108.0" r="252.4" fill="none" stroke="#e2e2e2"/><text x="501" y="-71" font-size="9" fill="#bbb">f=13</text><circle cx="322.0" cy="108.0" r="4" fill="#333"/><text x="330" y="112" font-size="11" fill="#333">min (3,2), f=0</text><polyline points="112.0,248.0 217.0,178.0 269.5,143.0 295.8,125.5 308.9,116.8" fill="none" stroke="#1e6fae" stroke-width="2"/><circle cx="112.0" cy="248.0" r="3.5" fill="#1e6fae"/><circle cx="217.0" cy="178.0" r="3.5" fill="#1e6fae"/><circle cx="269.5" cy="143.0" r="3.5" fill="#1e6fae"/><circle cx="295.8" cy="125.5" r="3.5" fill="#1e6fae"/><circle cx="308.9" cy="116.8" r="3.5" fill="#1e6fae"/><polygon points="112.0,248.0 182.0,248.0 112.0,178.0" fill="#1e8449" fill-opacity="0.12" stroke="#1e8449" stroke-width="1.5"/><polygon points="182.0,248.0 112.0,178.0 182.0,178.0" fill="none" stroke="#1e8449" stroke-width="1.5" stroke-dasharray="4,3"/><circle cx="112.0" cy="248.0" r="3.5" fill="#1e8449"/><text x="100.0" y="252.0" font-size="10" fill="#1e8449">A</text><circle cx="182.0" cy="248.0" r="3.5" fill="#1e8449"/><text x="170.0" y="252.0" font-size="10" fill="#1e8449">B</text><circle cx="112.0" cy="178.0" r="3.5" fill="#1e8449"/><text x="100.0" y="182.0" font-size="10" fill="#1e8449">C</text><circle cx="182.0" cy="178.0" r="3.5" fill="#1e8449"/><text x="170.0" y="182.0" font-size="10" fill="#1e8449">D</text><line x1="154.0" y1="206.0" x2="280.0" y2="136.0" stroke="#1e8449" stroke-dasharray="2,3" marker-end="url(#g)"/></g><line x1="80" y1="322" x2="104" y2="322" stroke="#1e6fae" stroke-width="2"/><circle cx="92" cy="322" r="3.5" fill="#1e6fae"/><text x="112" y="326" font-size="11" fill="#444">gradient descent (uses the slope)</text><polygon points="300,316 318,316 300,328" fill="#1e8449" fill-opacity="0.12" stroke="#1e8449"/><text x="326" y="326" font-size="11" fill="#444">Nelder-Mead simplex (compares heights)</text><text x="230" y="348" font-size="11" fill="#666" text-anchor="middle">both converge to (3,2); only the route differs</text><defs><marker id="g" markerWidth="8" markerHeight="8" refX="6" refY="3" orient="auto"><path d="M0,0 L6,3 L0,6 Z" fill="#1e8449"/></marker></defs>
</svg>
