<svg xmlns="http://www.w3.org/2000/svg" viewBox="0 0 520 320" font-family="system-ui, -apple-system, Segoe UI, sans-serif">
<line x1="64" y1="210.0" x2="496" y2="210.0" stroke="#eee"/><line x1="64" y1="148.0" x2="496" y2="148.0" stroke="#eee"/><line x1="64" y1="86.0" x2="496" y2="86.0" stroke="#eee"/><line x1="64" y1="24.0" x2="496" y2="24.0" stroke="#eee"/><line x1="64" y1="24" x2="64" y2="272" stroke="#888"/><line x1="64" y1="272" x2="496" y2="272" stroke="#888"/><line x1="64.0" y1="272.0" x2="64.0" y2="277.0" stroke="#888"/><text x="64.0" y="292.0" font-size="11" fill="#444" text-anchor="middle">0</text><line x1="172.0" y1="272.0" x2="172.0" y2="277.0" stroke="#888"/><text x="172.0" y="292.0" font-size="11" fill="#444" text-anchor="middle">1</text><line x1="280.0" y1="272.0" x2="280.0" y2="277.0" stroke="#888"/><text x="280.0" y="292.0" font-size="11" fill="#444" text-anchor="middle">2</text><line x1="388.0" y1="272.0" x2="388.0" y2="277.0" stroke="#888"/><text x="388.0" y="292.0" font-size="11" fill="#444" text-anchor="middle">3</text><line x1="496.0" y1="272.0" x2="496.0" y2="277.0" stroke="#888"/><text x="496.0" y="292.0" font-size="11" fill="#444" text-anchor="middle">4</text><line x1="59" y1="272.0" x2="64" y2="272.0" stroke="#888"/><text x="55" y="276.0" font-size="11" fill="#444" text-anchor="end">0.00</text><line x1="59" y1="210.0" x2="64" y2="210.0" stroke="#888"/><text x="55" y="214.0" font-size="11" fill="#444" text-anchor="end">0.25</text><line x1="59" y1="148.0" x2="64" y2="148.0" stroke="#888"/><text x="55" y="152.0" font-size="11" fill="#444" text-anchor="end">0.50</text><line x1="59" y1="86.0" x2="64" y2="86.0" stroke="#888"/><text x="55" y="90.0" font-size="11" fill="#444" text-anchor="end">0.75</text><line x1="59" y1="24.0" x2="64" y2="24.0" stroke="#888"/><text x="55" y="28.0" font-size="11" fill="#444" text-anchor="end">1.00</text><polyline points="64.0,24.0 66.2,24.1 68.3,24.3 70.5,24.6 72.6,25.0 74.8,25.6 77.0,26.3 79.1,27.1 81.3,28.0 83.4,29.1 85.6,30.3 87.8,31.6 89.9,33.0 92.1,34.5 94.2,36.1 96.4,37.9 98.6,39.7 100.7,41.7 102.9,43.7 105.0,45.9 107.2,48.1 109.4,50.5 111.5,52.9 113.7,55.4 115.8,58.0 118.0,60.7 120.2,63.4 122.3,66.2 124.5,69.1 126.6,72.0 128.8,75.0 131.0,78.1 133.1,81.2 135.3,84.3 137.4,87.5 139.6,90.8 141.8,94.0 143.9,97.3 146.1,100.6 148.2,104.0 150.4,107.3 152.6,110.7 154.7,114.1 156.9,117.5 159.0,120.9 161.2,124.3 163.4,127.7 165.5,131.1 167.7,134.5 169.8,137.9 172.0,141.2 174.2,144.6 176.3,147.9 178.5,151.2 180.6,154.4 182.8,157.7 185.0,160.9 187.1,164.0 189.3,167.2 191.4,170.3 193.6,173.3 195.8,176.3 197.9,179.3 200.1,182.2 202.2,185.1 204.4,187.9 206.6,190.7 208.7,193.4 210.9,196.1 213.0,198.7 215.2,201.3 217.4,203.8 219.5,206.2 221.7,208.6 223.8,211.0 226.0,213.2 228.2,215.5 230.3,217.6 232.5,219.8 234.6,221.8 236.8,223.8 239.0,225.8 241.1,227.7 243.3,229.5 245.4,231.3 247.6,233.0 249.8,234.7 251.9,236.3 254.1,237.8 256.2,239.4 258.4,240.8 260.6,242.2 262.7,243.6 264.9,244.9 267.0,246.2 269.2,247.4 271.4,248.6 273.5,249.7 275.7,250.8 277.8,251.8 280.0,252.8 282.2,253.8 284.3,254.7 286.5,255.6 288.6,256.4 290.8,257.3 293.0,258.0 295.1,258.8 297.3,259.5 299.4,260.2 301.6,260.8 303.8,261.4 305.9,262.0 308.1,262.6 310.2,263.1 312.4,263.6 314.6,264.1 316.7,264.5 318.9,265.0 321.0,265.4 323.2,265.8 325.4,266.2 327.5,266.5 329.7,266.8 331.8,267.2 334.0,267.5 336.2,267.7 338.3,268.0 340.5,268.3 342.6,268.5 344.8,268.7 347.0,268.9 349.1,269.1 351.3,269.3 353.4,269.5 355.6,269.7 357.8,269.8 359.9,270.0 362.1,270.1 364.2,270.2 366.4,270.4 368.6,270.5 370.7,270.6 372.9,270.7 375.0,270.8 377.2,270.9 379.4,270.9 381.5,271.0 383.7,271.1 385.8,271.2 388.0,271.2 390.2,271.3 392.3,271.3 394.5,271.4 396.6,271.4 398.8,271.5 401.0,271.5 403.1,271.5 405.3,271.6 407.4,271.6 409.6,271.6 411.8,271.7 413.9,271.7 416.1,271.7 418.2,271.7 420.4,271.8 422.6,271.8 424.7,271.8 426.9,271.8 429.0,271.8 431.2,271.8 433.4,271.9 435.5,271.9 437.7,271.9 439.8,271.9 442.0,271.9 444.2,271.9 446.3,271.9 448.5,271.9 450.6,271.9 452.8,271.9 455.0,271.9 457.1,271.9 459.3,272.0 461.4,272.0 463.6,272.0 465.8,272.0 467.9,272.0 470.1,272.0 472.2,272.0 474.4,272.0 476.6,272.0 478.7,272.0 480.9,272.0 483.0,272.0 485.2,272.0 487.4,272.0 489.5,272.0 491.7,272.0 493.8,272.0 496.0,272.0" fill="none" stroke="#1e6fae" stroke-width="2"/><line x1="199.0" y1="272.0" x2="199.0" y2="180.8" stroke="#c0392b" stroke-dasharray="4,3"/><line x1="64" y1="180.8" x2="199.0" y2="180.8" stroke="#c0392b" stroke-dasharray="4,3"/><circle cx="199.0" cy="180.8" r="4" fill="#c0392b"/><text x="207.0" y="172.8" font-size="11" fill="#c0392b">d = 1.25 A -> 0.37</text><text x="280" y="312" font-size="12" fill="#333" text-anchor="middle">distance d from interaction site (A)</text><text x="16" y="148" font-size="12" fill="#333" text-anchor="middle" transform="rotate(-90 16 148)">score fraction  exp(-(d/1.25)^2)</text>
</svg>
